<?xml version="1.0" encoding="UTF-8"?>
<svg width="150pt" height="150pt" version="1.1" viewBox="0 0 700 700" xmlns="http://www.w3.org/2000/svg" xmlns:xlink="http://www.w3.org/1999/xlink">
 <defs>
 
 
  
 </defs>
 <g>
  <path d="m334.73 375.68s-0.37891 0.54297-1.0039 1.5898c-0.62891 1.0469-1.4492 2.6328-2.4062 4.6523-0.93359 2.043-1.9375 4.5742-2.957 7.4922-0.24609 0.73438-0.50391 1.4844-0.76563 2.2617-0.23437 0.78906-0.48047 1.5898-0.72656 2.4258-0.24609 0.82813-0.58203 1.6445-0.98438 2.4453-0.39062 0.81641-0.73438 1.668-1.0586 2.5664-1.3828 3.5117-2.5977 7.4375-3.7812 11.621-0.54688 2.1094-1.1328 4.2734-1.6055 6.5078-0.53125 2.2227-0.94531 4.5312-1.3984 6.875-0.24219 1.1719-0.39844 2.375-0.59766 3.5664-0.18359 1.1914-0.375 2.4023-0.55859 3.6172-0.15234 1.2227-0.30078 2.4453-0.46484 3.6797-0.15234 1.2305-0.32422 2.4688-0.42578 3.7188-0.21875 2.5078-0.51562 5.0195-0.64453 7.5703-0.15625 2.5312-0.34766 5.0859-0.40234 7.6445-0.089844 2.5586-0.19531 5.1055-0.17969 7.6602-0.003907 2.5547-0.0625 5.0977 0.023437 7.6289 0.027344 1.2617 0.054687 2.4961 0.085937 3.7617 0.015626 1.25 0.050782 2.4883 0.12891 3.7227 0.11719 2.4688 0.24219 4.9102 0.35156 7.3203 0.37109 4.8008 0.65625 9.4531 1.1484 13.828 0.23047 2.207 0.41016 4.3398 0.66016 6.4102 0.25781 2.0625 0.50781 4.0547 0.75 5.9648 0.125 0.95703 0.21094 1.8984 0.375 2.8047 0.074219 0.45312 0.18359 0.90234 0.23438 1.3477 0.050781 0.44141 0.066406 0.89062 0.074219 1.332 0.023437 1.7734 0.042969 3.4609 0.066406 5.0391 0.011719 3.168 0.054687 5.9453 0.10547 8.2266 0.050781 2.2891 0.039062 4.0938 0.050781 5.3242-0.003906 1.2305-0.003906 1.8945-0.003906 1.8945s-0.21875-0.60938-0.63672-1.7812c-0.39844-1.1602-1.0195-2.8555-1.7305-5.0391-0.36328-1.082-0.76562-2.3008-1.2031-3.6172-0.44922-1.3086-0.82812-2.7539-1.293-4.2852-0.44922-1.5469-0.91797-3.1797-1.4102-4.9102-0.26953-0.85156-0.42969-1.7539-0.46875-2.6992-0.066406-0.92969-0.21875-1.875-0.33203-2.8516-0.24219-1.9375-0.49219-3.9648-0.75781-6.0469-0.26172-2.0938-0.44141-4.2617-0.67578-6.4961-0.49219-4.4648-0.79688-9.1836-1.1641-14.074-0.11719-2.4453-0.24219-4.9297-0.36328-7.4414-0.074218-1.2617-0.11328-2.5273-0.12891-3.8008-0.023437-1.2812-0.050781-2.5586-0.085937-3.8516-0.085938-2.5586-0.035157-5.1562-0.023438-7.7656-0.011719-2.6094 0.09375-5.2305 0.18359-7.8359 0.0625-2.625 0.25391-5.2422 0.41406-7.8438 0.13281-2.6094 0.4375-5.1953 0.66016-7.7734 0.11328-1.2812 0.28125-2.5703 0.4375-3.8398 0.16406-1.2773 0.32031-2.5312 0.47656-3.7969 0.19531-1.2617 0.38672-2.5078 0.58203-3.7344 0.19531-1.25 0.36328-2.4766 0.60937-3.6836 0.46484-2.4258 0.89453-4.8164 1.4492-7.1328 0.48828-2.3281 1.0977-4.5742 1.668-6.7891 1.2305-4.3672 2.5039-8.4961 3.9648-12.215 0.33594-0.93359 0.73828-1.832 1.0547-2.7344 0.3125-0.90625 0.63281-1.7812 1.1484-2.5664 0.48828-0.78516 0.95703-1.5352 1.4219-2.2734 0.48828-0.73438 0.95703-1.4219 1.418-2.1094 1.875-2.6836 3.6953-4.8828 5.2695-6.6094 1.5625-1.7422 2.9531-2.9531 3.9023-3.7578 0.96484-0.78906 1.5234-1.1445 1.5234-1.1445z"/>
  <path d="m276.62 291.97s-0.042969 1.0078-0.12891 2.8906c-0.050782 0.93359-0.10547 2.0938-0.17188 3.457-0.15625 1.3555-0.35938 2.918-0.58203 4.6719-0.17969 1.7695-0.60547 3.6641-0.98438 5.75-0.34766 2.1094-0.94141 4.3242-1.5195 6.7148-0.54688 2.3984-1.3281 4.8828-2.0547 7.5469-0.76562 2.6445-1.6562 5.3828-2.5664 8.2656-1.8477 5.707-3.8516 11.879-5.9688 18.414-0.51563 1.6406-0.99219 3.3047-1.5 4.9766-0.24609 0.82812-0.50391 1.6875-0.75781 2.5273-0.23047 0.85547-0.45312 1.7148-0.6875 2.5859-0.23047 0.86328-0.46094 1.7266-0.6875 2.6055-0.23047 0.87891-0.5 1.7422-0.6875 2.6328-0.41406 1.7734-0.83594 3.5625-1.2539 5.3594-0.23047 0.90234-0.38672 1.8203-0.55469 2.7266-0.16797 0.91797-0.33984 1.832-0.50391 2.75-0.17188 0.92969-0.34766 1.8438-0.51562 2.7773-0.14453 0.92969-0.25391 1.875-0.37891 2.8047-0.22266 1.8867-0.52734 3.7617-0.69922 5.6797-0.14453 1.9102-0.29297 3.8242-0.44141 5.7383l-0.11719 1.4492c-0.023437 0.49219-0.015625 0.96875-0.027343 1.4492-0.011719 0.97266-0.023438 1.9375-0.035157 2.9102-0.011719 0.98047-0.027343 1.9492-0.042969 2.918l-0.011718 0.73438v0.35156l0.011718 0.37109 0.042969 1.4961 0.039063 1.4961 0.09375 1.4375c0.078125 0.95703 0.10547 1.8984 0.22266 2.8711l0.30078 2.918 0.37891 2.918c1.0078 7.8008 2.625 15.578 4.418 23.18 1.8359 7.5898 3.793 15.059 5.918 22.215 2.1406 7.1523 4.2969 14.051 6.4922 20.535 1.0859 3.2539 2.2109 6.3906 3.2969 9.4258 1.0742 3.0391 2.1602 5.9531 3.2305 8.7539 2.1562 5.582 4.1992 10.668 6.1484 15.125 1.9648 4.4453 3.7617 8.2812 5.3633 11.375 1.5977 3.1133 2.9961 5.4727 3.9922 7.0547 0.50391 0.80078 0.92969 1.3711 1.1914 1.7734 0.27344 0.40234 0.42188 0.60938 0.42188 0.60938s-0.16797-0.19531-0.48047-0.55859c-0.3125-0.37109-0.8125-0.89453-1.3906-1.6523-1.1484-1.4844-2.8398-3.6914-4.6914-6.6758-1.875-2.9844-4.0469-6.6641-6.3164-11.016-2.2891-4.3359-4.7148-9.3203-7.1719-14.828-1.2305-2.7422-2.4883-5.6289-3.7422-8.625-0.64453-1.5-1.25-3.0352-1.8633-4.5977-0.63281-1.5625-1.25-3.1484-1.8633-4.7617-2.4883-6.4531-4.9727-13.312-7.2617-20.5-1.1641-3.5938-2.2852-7.2617-3.375-11.004-0.53125-1.8594-1.0703-3.7539-1.6055-5.6406-0.48828-1.9102-0.99609-3.8125-1.4688-5.7383-0.46484-1.9375-0.95312-3.8594-1.3789-5.8281-0.21875-0.98047-0.44141-1.9531-0.66016-2.9336l-0.60547-2.9531c-0.42188-1.9766-0.75781-3.9766-1.1328-5.9648l-0.48828-3.0078c-0.16797-1.0039-0.32422-2.0039-0.44141-3.0117-0.125-1.0195-0.26172-2.0273-0.37109-3.0391l-0.29297-3.0508c-0.11328-1.0078-0.14453-2.0703-0.21094-3.1094l-0.089844-1.5586-0.054688-2.9922-0.003906-0.375 0.003906-0.40234 0.011719-0.75781c0.023438-1.0195 0.042969-2.0312 0.066407-3.0469 0.015624-1.0117 0.039062-2.0273 0.066406-3.0312 0.011718-0.51562 0.011718-1.0195 0.039062-1.5195l0.12891-1.5078c0.17188-2 0.34766-4.0039 0.51953-5.9922 0.23047-1.9727 0.58203-3.9141 0.86719-5.8633 0.15625-0.97266 0.29297-1.9414 0.46484-2.9102 0.20312-0.95312 0.39844-1.9023 0.59375-2.8516 0.20312-0.95312 0.39844-1.8984 0.59375-2.8281 0.19531-0.94531 0.38672-1.8828 0.64453-2.8047 1.7578-7.4141 4.1172-14.363 6.4023-20.887 2.3281-6.5195 4.7266-12.582 6.8867-18.172 2.1211-5.6055 4.0781-10.723 5.5703-15.34 0.74609-2.3008 1.4688-4.4648 2-6.4922 0.55469-2.0273 1.1367-3.875 1.457-5.582 0.375-1.6953 0.71094-3.2188 1.0078-4.5469 0.20312-1.3438 0.375-2.4922 0.51953-3.4219 0.27344-1.875 0.43359-2.8633 0.43359-2.8633z"/>
  <path d="m360.34 301.66c0.25781 2.1562 0.57031 4.2656 1.1992 6.3047 0.55469 2.0547 1.293 4.0469 2.0898 6.0039 0.44141 0.98047 0.86719 1.9492 1.3086 2.9023 0.49219 0.94531 0.93359 1.9023 1.4375 2.8516 0.97266 1.875 2.0117 3.7344 3.1016 5.5664 1.0742 1.832 2.2109 3.6406 3.3555 5.4414 1.125 1.8086 2.2891 3.6172 3.457 5.4102l3.5117 5.4141c1.1758 1.8086 2.3477 3.625 3.5039 5.4609 1.1406 1.8242 2.2852 3.6719 3.4102 5.5312 1.1211 1.8711 2.2188 3.7578 3.2812 5.6797 1.0547 1.9219 2.1016 3.8516 3.0859 5.8242 0.50781 0.98047 0.96484 1.9883 1.4375 2.9844 0.48047 1.0039 0.92969 2.0156 1.3555 3.0469 0.45312 1.0195 0.88672 2.0391 1.2773 3.0859 0.41406 1.043 0.83594 2.0781 1.1797 3.1484 0.75 2.1172 1.3945 4.2852 1.9766 6.4609 0.25781 1.0977 0.57031 2.1953 0.78906 3.3164 0.20703 1.1133 0.46094 2.2227 0.62109 3.3672 0.14453 1.1328 0.32422 2.2617 0.44922 3.3984l0.26172 3.4492 0.003906 0.16406-0.011719 0.24219c-0.11719 1.5391-0.21094 3.1094-0.35156 4.6602-0.15625 1.5352-0.32031 3.0977-0.53125 4.6328-0.42969 3.0586-0.92969 6.1133-1.5234 9.1406-1.1875 6.0469-2.7227 11.977-4.3945 17.852-0.85156 2.918-1.7539 5.8281-2.6836 8.7266l-1.3984 4.3281-1.4727 4.2969c-0.99219 2.8672-1.9805 5.7188-3 8.5508l-3.1016 8.4961-6.2109 16.918-1.5195 4.2266c-0.50391 1.4102-1.0078 2.8125-1.4961 4.2344-0.5 1.4102-0.97266 2.8281-1.4492 4.2461-0.48047 1.4219-0.95703 2.832-1.3984 4.2617-0.47656 1.418-0.91797 2.8438-1.3477 4.2773-0.45312 1.418-0.87891 2.8555-1.2891 4.2891-0.42969 1.4297-0.81641 2.8711-1.1992 4.3164-0.40234 1.4375-0.75 2.8945-1.0859 4.3438-0.72656 2.9062-1.3477 5.8242-1.8711 8.7812-0.28516 1.4727-0.48047 2.957-0.73437 4.4414-0.21094 1.4883-0.35938 2.9922-0.56641 4.4922-0.078125-1.5117-0.16797-3.0117-0.17969-4.5352v-2.2773c-0.011719-0.75781 0-1.5195 0.054687-2.2695 0.11719-3.0312 0.33984-6.0664 0.6875-9.0898 0.17969-1.5195 0.36328-3.0234 0.59766-4.5234 0.22266-1.5 0.46484-3.0078 0.73437-4.5039 0.50391-3 1.0977-5.9883 1.7734-8.9492 0.33594-1.4883 0.66797-2.9609 1.0312-4.4336 0.35938-1.4844 0.72656-2.9453 1.1133-4.4062 0.74609-2.9453 1.5625-5.8672 2.3984-8.7695 0.82812-2.918 1.6875-5.8086 2.5703-8.6953 0.88672-2.8945 1.7539-5.7773 2.6719-8.6406l5.4102-17.188 2.6133-8.5742c0.84375-2.8672 1.6758-5.7188 2.4531-8.5859 0.78906-2.8672 1.5508-5.7227 2.2383-8.6055 0.70703-2.8711 1.3281-5.7461 1.9219-8.6367 0.58203-2.8711 1.082-5.7617 1.5078-8.6445 0.20703-1.457 0.35937-2.8945 0.55469-4.3281 0.15234-1.4492 0.26953-2.9023 0.40234-4.3398v0.40234l-0.16797-3c-0.10156-0.99609-0.22266-1.9883-0.33984-3-0.125-0.98438-0.32422-1.9805-0.46875-2.9844-0.15625-1.0039-0.41016-1.9883-0.60547-2.9844-0.46094-1.9805-0.99219-3.9688-1.6133-5.9297-0.29297-0.99219-0.63281-1.9648-0.96484-2.9336-0.32422-0.99609-0.69531-1.9648-1.0625-2.9297-0.35937-0.97266-0.73828-1.9492-1.1484-2.918-0.40234-0.95703-0.79688-1.9258-1.2422-2.8789-0.81641-1.9258-1.7188-3.8477-2.6328-5.7383-0.91797-1.9023-1.8945-3.793-2.8516-5.6914-0.98047-1.8945-1.9727-3.7812-2.9805-5.668l-3.0586-5.6719c-1.0117-1.8945-2.0508-3.7852-3.0508-5.7109-1.0078-1.9023-2.0039-3.8242-2.9805-5.7695-0.96875-1.9414-1.8984-3.9102-2.8008-5.8984-0.90234-1.9883-1.7461-4.0039-2.5352-6.043-0.40234-1.0078-0.73437-2.0547-1.0938-3.0898-0.33984-1.0469-0.64453-2.1055-0.95703-3.1484-0.53125-2.1289-1.0586-4.2578-1.2812-6.4414-0.0625-0.54688-0.14062-1.082-0.17969-1.625l-0.074219-1.6367c-0.011719-0.27344-0.027344-0.55469-0.035156-0.82422l0.035156-0.80078z"/>
  <path d="m251.02 236.97s0.078125 0.0625 0.21875 0.17969c0.13281 0.125 0.36328 0.28125 0.61719 0.53125 0.5 0.51953 1.2305 1.3438 1.8828 2.5547 0.66797 1.1992 1.3008 2.7383 1.8711 4.5352 0.57812 1.793 1.0859 3.8398 1.5859 6.0547 0.5 2.207 0.98047 4.5938 1.5508 7.043 0.56641 2.4531 1.2109 4.9961 2.1211 7.4141 0.90234 2.4141 2.0898 4.7109 3.6953 6.4297 0.38672 0.45312 0.83984 0.8125 1.2695 1.1914 0.47656 0.32031 0.92578 0.67578 1.4375 0.93359 0.24219 0.15234 0.48828 0.29687 0.76562 0.39844l0.39844 0.17188 0.20312 0.089844 0.10156 0.042968 0.15625 0.066407c0.30859 0.09375 0.37891 0.125 0.72656 0.21094 0.29297 0.066406 0.57812 0.15234 0.89062 0.19141 2.4648 0.48828 5.1797 0.45313 7.8047 0.074219l0.98438-0.12891 0.98047-0.22266c0.64844-0.14062 1.3047-0.26172 1.9492-0.42188 0.63672-0.20312 1.2695-0.39844 1.8984-0.59375 0.3125-0.09375 0.63672-0.19141 0.94531-0.28516 0.32031-0.10156 0.62109-0.23438 0.92578-0.35938 2.4688-0.90625 4.793-2.0508 6.9648-3.207 1.0742-0.62109 2.1211-1.2266 3.1406-1.8086 1.0078-0.60547 1.9258-1.2812 2.8516-1.875 1.875-1.1602 3.4492-2.4453 4.918-3.5039 0.72266-0.54297 1.4336-1.0234 2.043-1.5234 0.60938-0.5 1.1641-0.95703 1.6758-1.3711 1.0195-0.82812 1.8555-1.4609 2.4023-1.9023 0.57031-0.42969 0.875-0.66016 0.875-0.66016s-0.21094 0.3125-0.60547 0.90234c-0.40234 0.58203-0.98438 1.4492-1.7695 2.5312-0.39063 0.54297-0.82422 1.1367-1.3008 1.7852-0.46875 0.65625-1.0742 1.2812-1.668 1.9883-1.2305 1.3984-2.5742 3.0312-4.3008 4.5703-0.84375 0.78906-1.7148 1.6367-2.6641 2.4531-0.99609 0.77344-2.0234 1.5664-3.0781 2.3867-2.1914 1.5469-4.6133 3.0859-7.332 4.3438-0.33594 0.16406-0.66797 0.34766-1.0117 0.48828-0.35156 0.14062-0.70703 0.27344-1.0625 0.41406-0.71875 0.26953-1.4453 0.54297-2.168 0.81641-0.74609 0.23437-1.5117 0.42969-2.2734 0.64844l-1.1602 0.30078-1.1914 0.20703c-3.1758 0.59766-6.5508 0.70703-9.9805 0.066406-0.42578-0.066406-0.86328-0.18359-1.3008-0.30078-0.37891-0.085937-1.0078-0.29687-1.4102-0.45312-0.027344-0.015626-0.11719-0.042969-0.10156-0.042969l-0.15625-0.0625-0.30859-0.14062-0.62891-0.28516c-0.42188-0.16797-0.81641-0.39844-1.2109-0.63672-0.8125-0.4375-1.5273-1.0117-2.2461-1.5742-0.66797-0.61719-1.3398-1.2266-1.8945-1.9102-1.1602-1.3438-2.082-2.8125-2.7656-4.2969-0.69922-1.4766-1.2617-2.9609-1.6523-4.4336-0.83984-2.9219-1.2227-5.7344-1.5-8.3555-0.26172-2.6328-0.38672-5.0781-0.5-7.3203-0.10547-2.2383-0.20703-4.2656-0.37109-6.0547-0.15625-1.7812-0.38672-3.3203-0.68359-4.5586-0.30078-1.2383-0.6875-2.1602-0.99609-2.7812-0.37109-0.61328-0.55859-0.94531-0.55859-0.94531z"/>
  <path d="m367.94 231.09c1.8086-1.0859 3.6641-2.0234 5.5312-2.9102 1.8711-0.88672 3.7539-1.7148 5.6562-2.4883 0.95312-0.39062 1.9141-0.75781 2.8672-1.1328 0.95703-0.37109 1.9219-0.71094 2.8789-1.0703l2.9102-1.0039 2.9102-0.94531 1.6406-0.53125 1.2227 1.3906c0.375 0.42187 0.8125 0.89453 1.2227 1.3398l1.2812 1.3555c0.42578 0.45312 0.85156 0.90234 1.2891 1.3438l1.293 1.3438 2.6367 2.6367c0.45312 0.42188 0.90234 0.85156 1.332 1.2891 0.44141 0.44922 0.91406 0.83594 1.3594 1.2695 0.44922 0.4375 0.89453 0.85547 1.3594 1.2617 0.46484 0.40234 0.91797 0.83984 1.3906 1.2383 0.48047 0.37891 0.94531 0.78906 1.418 1.1914 0.47656 0.40234 0.96875 0.75781 1.4609 1.1523l0.73438 0.57813 0.76562 0.52734c0.51563 0.34766 1.0078 0.75781 1.5508 1.0469 0.53906 0.3125 1.0625 0.67578 1.6289 0.97266 0.57031 0.28516 1.1484 0.55859 1.7461 0.875-0.64453 0.027344-1.3086 0.015626-1.9883 0.011719-0.67578-0.035156-1.3164-0.17969-1.9922-0.28125-0.68359-0.09375-1.3047-0.30859-1.9648-0.49219l-0.97266-0.29688c-0.32031-0.11328-0.62109-0.24219-0.94141-0.36328-0.60938-0.25781-1.2617-0.48828-1.8555-0.79688-0.58984-0.29687-1.1992-0.58984-1.7852-0.90625-0.59375-0.32422-1.1602-0.67187-1.7422-1.0078-0.57812-0.34766-1.1211-0.70703-1.6758-1.082-0.54688-0.375-1.1094-0.74609-1.625-1.1484-0.53125-0.39062-1.0625-0.79688-1.5859-1.2031l-1.5195-1.2656c-0.51562-0.42188-0.98438-0.87891-1.4766-1.3164-0.98438-0.87891-1.9141-1.8125-2.8398-2.7539-0.46875-0.46484-0.90234-0.96484-1.3477-1.4492-0.44141-0.5-0.86719-0.97266-1.332-1.5195l2.8672 0.85156-2.9609 0.78516-2.9805 0.72266c-1.0078 0.21875-1.9922 0.46094-3 0.66797-1.0078 0.20313-2 0.42188-3.0117 0.59375-2.0234 0.38672-4.0586 0.70703-6.1055 0.97266-2.0703 0.26562-4.1328 0.48047-6.25 0.54688z"/>
  <path d="m334.46 216.88s-0.09375-0.17187-0.21875-0.50391c-0.11328-0.32422-0.32031-0.8125-0.45312-1.4219-0.15234-0.62109-0.33984-1.3828-0.44922-2.25-0.11328-0.875-0.17969-1.8594-0.15625-2.9297 0.011719-1.0742 0.125-2.2344 0.32422-3.457 0.22266-1.2109 0.51562-2.4922 0.98047-3.7734 0.44141-1.2891 1.0078-2.5977 1.7305-3.8594 0.6875-1.2773 1.5586-2.4883 2.4922-3.6641 0.46875-0.57813 1.0078-1.1094 1.5117-1.6562 0.52734-0.53125 1.0977-1.0195 1.6562-1.4961 0.58203-0.46484 1.1523-0.93359 1.7695-1.3086 0.61719-0.39062 1.1992-0.80469 1.8438-1.1016 1.2383-0.67578 2.5078-1.1719 3.7227-1.5508 0.62891-0.15625 1.2031-0.35156 1.793-0.46094 0.59766-0.09375 1.1602-0.20312 1.707-0.26953 1.0977-0.09375 2.0938-0.14453 2.9844-0.078126 0.89062 0.066407 1.6562 0.15625 2.2852 0.29688 0.61719 0.11719 1.1133 0.29297 1.4492 0.37109 0.33203 0.10156 0.50391 0.16797 0.50391 0.16797l0.09375 0.54297s-0.60938 0.14453-1.7031 0.41016c-0.54297 0.11719-1.1758 0.35156-1.9219 0.57031-0.37109 0.10156-0.75781 0.25781-1.1602 0.41406-0.40234 0.16406-0.83984 0.29297-1.2773 0.48047-0.4375 0.19141-0.88672 0.38672-1.3555 0.59375-0.46484 0.21875-0.92578 0.47656-1.4062 0.72266-0.95313 0.51953-1.9258 1.1211-2.8828 1.8125-0.96875 0.6875-1.9023 1.4727-2.8125 2.3203-0.44922 0.42578-0.87891 0.87891-1.3164 1.3281-0.40234 0.47656-0.84375 0.93359-1.2305 1.4297-0.8125 0.96484-1.5625 1.9805-2.2383 3.0234-0.67578 1.0469-1.2891 2.1055-1.8242 3.1641-0.54688 1.0586-1.0039 2.1094-1.418 3.125-0.39062 1.0195-0.74609 1.9805-1.0234 2.9023-0.55859 1.8203-0.95312 3.3672-1.1641 4.4531-0.22266 1.0938-0.28516 1.7188-0.28516 1.7188z"/>
  <path d="m277.83 246.31s0.22266-0.57812 0.77344-1.6016c0.57031-1.0078 1.4453-2.4805 2.8125-4.1875 1.3789-1.7031 3.2148-3.6562 5.6211-5.5938 2.3906-1.9648 5.4336-3.7695 8.9492-5.3125 0.44141-0.18359 0.89453-0.375 1.3438-0.56641 0.46094-0.19141 0.91406-0.37891 1.3945-0.51953 0.95313-0.30859 1.9258-0.60938 2.918-0.92969 0.99609-0.29297 2.0312-0.47656 3.0781-0.72266 0.52734-0.11328 1.0547-0.24609 1.5898-0.33594 0.53906-0.066406 1.082-0.14062 1.625-0.21875 0.54688-0.074218 1.0977-0.14453 1.6523-0.21875l0.83984-0.11328 0.35156-0.042969 0.40234-0.042968c0.53125-0.054688 1.0742-0.11719 1.6172-0.17188 0.53906-0.054688 1.0938-0.11719 1.5977-0.20703 2.0391-0.30859 4.1953-0.64453 6.3281-1.1523 2.1523-0.46484 4.3008-1.082 6.4609-1.7344 2.1523-0.70703 4.3125-1.4492 6.4688-2.3242 1.0859-0.41406 2.1562-0.90234 3.2383-1.3555 1.0703-0.48828 2.1523-0.95703 3.2188-1.4688 2.1602-0.99219 4.3047-2.0703 6.4609-3.1641 4.3164-2.168 8.668-4.4727 13.121-6.5234 4.4531-2.0703 9.0234-3.8867 13.625-5.1875 4.5859-1.3398 9.1953-2.082 13.551-2.3594 1.0977-0.085937 2.1836-0.10156 3.2305-0.11328l0.78906-0.011719h0.30469 0.21094 0.042969l0.38672 0.027344c0.5 0.039062 0.99609 0.078125 1.4766 0.11719 1.9805 0.17969 3.875 0.29297 5.7188 0.50391 1.875 0.29297 3.6719 0.57031 5.375 0.83984 1.6914 0.34766 3.2656 0.77344 4.7422 1.1367 0.74609 0.15625 1.4336 0.46484 2.1211 0.68359 0.66797 0.23438 1.3164 0.46484 1.9414 0.6875 1.2305 0.48828 2.3203 1.0586 3.3086 1.5078 0.96484 0.53125 1.793 1.0234 2.5078 1.4688 0.69531 0.46484 1.2812 0.86719 1.7656 1.1875 0.95312 0.64844 1.4688 0.99219 1.4688 0.99219s-0.58203-0.22266-1.6523-0.64453c-0.53906-0.21094-1.1914-0.48047-1.9648-0.79688-0.77344-0.27344-1.6641-0.58984-2.6641-0.93359-1.0234-0.25781-2.1211-0.60938-3.3594-0.85547-0.62109-0.11719-1.2695-0.23047-1.9414-0.34766-0.67188-0.10547-1.3477-0.28516-2.082-0.33203-1.4609-0.11719-2.9961-0.33203-4.6094-0.42969-1.625-0.050781-3.332-0.10156-5.1016-0.15625-1.8086 0.011719-3.7461 0.085938-5.7188 0.125-0.48828 0.011719-0.99609 0.023438-1.4961 0.035156l-0.375 0.003907h-0.054687c-0.15625 0 0.17187-0.003907 0.12891 0l-0.089844 0.011719-0.18359 0.015624-0.73438 0.078126c-0.98047 0.10547-1.9727 0.20703-2.9609 0.37891-3.9883 0.59375-8.1133 1.5742-12.258 3.0352-2.0703 0.70703-4.1562 1.5469-6.25 2.4375-2.0898 0.91797-4.1875 1.9102-6.3047 2.9414-4.2188 2.1094-8.5078 4.3945-12.902 6.6484-4.418 2.1992-8.9492 4.3672-13.637 6.0664-4.6602 1.7422-9.4531 3.0352-14.164 3.8086-2.3516 0.41016-4.6719 0.66797-7.0156 0.82422-0.59375 0.050782-1.1328 0.066407-1.6758 0.085938-0.54687 0.015625-1.0859 0.039062-1.6289 0.054688-1.0547 0.042968-2.0898 0.10156-3.1133 0.14062-0.5 0.023438-0.99609 0.039063-1.4883 0.0625-0.48828 0.039063-0.97266 0.11719-1.4492 0.17188-0.95703 0.13281-1.9141 0.21875-2.8438 0.375-0.92578 0.18359-1.8242 0.375-2.7148 0.55859-0.45312 0.078125-0.88672 0.20312-1.3086 0.33594-0.42969 0.125-0.85156 0.24219-1.2773 0.36328-3.3438 1.0195-6.3438 2.2852-8.8203 3.7617-2.4805 1.457-4.5469 2.957-6.1367 4.3398-1.5625 1.3984-2.7383 2.5977-3.4844 3.4727-0.73828 0.88672-1.0977 1.3906-1.0977 1.3906z"/>
  <path d="m248.43 218.12c0.41406-0.14062 0.8125-0.32422 1.2031-0.47656l1.1641-0.54297c0.77734-0.33984 1.5117-0.79687 2.2695-1.1719 0.375-0.19141 0.73438-0.42969 1.0977-0.64453l1.0859-0.64844c0.37109-0.20312 0.71875-0.44922 1.0625-0.6875l1.0547-0.69922 1.0469-0.69922c0.35156-0.23438 0.67578-0.50391 1.0117-0.75781 0.66016-0.51562 1.3398-1.0117 2.0117-1.5117 0.33984-0.24219 0.64844-0.53125 0.96875-0.80078l0.96484-0.8125 1.9219-1.6133 0.089844-0.074219 0.12891-0.074219c0.33203-0.20312 0.55859-0.32422 0.82813-0.46094 0.26172-0.13281 0.53906-0.25391 0.80078-0.37109 0.53906-0.22266 1.0859-0.42969 1.6523-0.58203 1.1328-0.30859 2.3203-0.49219 3.543-0.49219 1.2227 0.015625 2.4648 0.24609 3.6523 0.67188l0.86719 0.35156c0.28516 0.13281 0.54688 0.30078 0.82422 0.45312l0.40234 0.23438c0.10547 0.066406-0.12891-0.078126-0.10156-0.0625l0.011719 0.003906 0.015625 0.011718 0.039063 0.023438 0.085937 0.042969 0.16797 0.089843 0.64453 0.33984c1.7539 0.92578 3.5391 1.8438 5.3477 2.6875 0.89453 0.44922 1.8047 0.86328 2.7109 1.2812 0.90625 0.42188 1.8242 0.81641 2.7344 1.2266l2.7617 1.1758 2.7891 1.1016c0.92969 0.35938 1.875 0.67188 2.8047 1.0312 0.94141 0.33203 1.8945 0.60938 2.8438 0.93359 0.95312 0.30078 1.9141 0.53906 2.8789 0.81641 0.96484 0.27344 1.9375 0.44922 2.9219 0.68359 0.98047 0.19531 1.9766 0.30859 2.9805 0.47656 0.99609 0.10547 2.0117 0.13281 3.0391 0.23438-0.49219 0.11719-0.99609 0.22266-1.5078 0.33203-0.50781 0.10156-1.0234 0.23438-1.5352 0.28125-1.0312 0.074219-2.082 0.21875-3.125 0.19531-1.0352-0.035157-2.0938 0-3.1289-0.10547-1.0352-0.11719-2.0898-0.19141-3.1133-0.36328-1.0234-0.18359-2.0625-0.33984-3.0742-0.57031-1.0117-0.24219-2.0312-0.46484-3.0352-0.73828-1.0039-0.28516-2.0039-0.56641-2.9922-0.89062-0.98438-0.32422-1.9766-0.64453-2.9414-1.0195-0.96875-0.375-1.9531-0.70703-2.9023-1.1328-0.95703-0.39844-1.9141-0.80078-2.8555-1.2305-1.8828-0.86328-3.7422-1.7656-5.5781-2.7734l-0.69922-0.38672-0.70703-0.40234-0.50781-0.29688-0.53125-0.24219c-0.72656-0.28516-1.5-0.46484-2.3125-0.50781s-1.6562 0.027344-2.4961 0.21094c-0.42578 0.09375-0.84375 0.20703-1.2617 0.33984-0.20703 0.066407-0.41016 0.14063-0.60938 0.22266-0.18359 0.074219-0.42188 0.17969-0.52734 0.23047l0.21094-0.15234-2.1797 1.5078-1.0938 0.74609c-0.37109 0.24219-0.72266 0.5-1.1133 0.69922-0.76562 0.44141-1.5273 0.87891-2.3008 1.3008-0.38672 0.20703-0.76172 0.44141-1.1641 0.62891l-1.2031 0.54688c-0.8125 0.35156-1.5859 0.76172-2.4258 1.0352l-1.2422 0.44141c-0.42188 0.14062-0.81641 0.30859-1.2422 0.42578l-1.2773 0.33594c-0.42578 0.11328-0.83984 0.22266-1.2812 0.30078-0.83203 0.16797-1.6992 0.31641-2.5742 0.34375z"/>
  <path d="m292.39 175.34s0.11328 0.085937 0.29688 0.27344c0.17969 0.19141 0.47656 0.46484 0.76172 0.83984 0.63281 0.73438 1.418 1.8477 2.1289 3.2773 0.17969 0.35938 0.34766 0.73438 0.52734 1.1328 0.17969 0.39062 0.30859 0.8125 0.47656 1.2422 0.3125 0.85547 0.55859 1.7812 0.77344 2.7539 0.13281 0.47656 0.18359 0.98438 0.25781 1.4883 0.078125 0.50391 0.15234 1.0234 0.18359 1.5469 0.050781 1.0469 0.10156 2.1094 0.023437 3.1875-0.10547 1.0703-0.16797 2.1445-0.42969 3.1797-0.19531 1.0469-0.46484 2.0625-0.85156 3.0117-0.18359 0.47656-0.34766 0.94531-0.54297 1.3984-0.21875 0.44141-0.4375 0.875-0.67188 1.2812-0.46094 0.81641-0.89453 1.5742-1.4453 2.2109-0.51953 0.64453-1.0117 1.2109-1.4727 1.6797-0.50781 0.45312-0.99219 0.8125-1.3711 1.0977-0.37109 0.29688-0.71875 0.49219-0.92578 0.63281-0.22266 0.14063-0.33984 0.20313-0.34766 0.20313l-0.35156-0.22266s0.23047-0.42969 0.62109-1.1797c0.20312-0.375 0.44141-0.82422 0.71875-1.3477 0.22266-0.54688 0.46484-1.1641 0.75781-1.832 0.3125-0.65625 0.52734-1.418 0.77344-2.2109 0.11719-0.39844 0.25391-0.80469 0.375-1.2227 0.089844-0.42578 0.19141-0.86328 0.28125-1.3047s0.20703-0.89062 0.28516-1.3477c0.0625-0.46484 0.12891-0.92969 0.19141-1.3984 0.15625-0.94141 0.19141-1.9102 0.26172-2.8789 0.09375-0.95703 0.0625-1.9336 0.10156-2.8828-0.035157-0.95312-0.042969-1.8945-0.11719-2.8008-0.12891-1.8086-0.35156-3.5-0.60938-4.9336-0.26172-1.4336-0.5-2.625-0.71094-3.4492-0.20313-0.82812-0.35156-1.2891-0.35156-1.2891z"/>
  <path d="m260.54 198.92c0.17188-2.0273 0.48047-4.043 0.875-6.043 0.41406-1.9883 0.82422-4 1.3906-5.957 0.54297-1.9766 1.1641-3.9258 1.8125-5.875 0.33594-0.96875 0.71875-1.9219 1.0703-2.8945l1.1797-2.8516 1.3008-2.8164c0.45312-0.93359 0.93359-1.8477 1.418-2.7656 1.0039-1.8125 2.0312-3.625 3.207-5.3633 0.55469-0.88672 1.1758-1.7266 1.7969-2.5703l0.92969-1.2773 1.0039-1.2227c0.67578-0.8125 1.3281-1.6406 2.0703-2.3984 0.73438-0.76172 1.4219-1.5742 2.207-2.2891l2.3594-2.168 2.5039-2c0.83984-0.66797 1.7578-1.2266 2.6484-1.8359 0.875-0.62109 1.832-1.1211 2.7773-1.6445l1.4102-0.78516c0.46875-0.25781 0.98047-0.46094 1.4688-0.6875l1.4766-0.66016c0.5-0.22266 0.99219-0.44922 1.5078-0.60547l3.0703-1.043c1.0352-0.30078 2.0938-0.52734 3.1406-0.78906 0.52734-0.11719 1.0469-0.27344 1.5781-0.34766l1.6016-0.23438 1.5977-0.22266 0.80078-0.10547c0.26172-0.023438 0.53906-0.035156 0.80469-0.050781l3.207-0.16406c0.53906-0.042968 1.0703-0.003906 1.6016 0.011719l1.5977 0.066406c2.1406 0.023438 4.2383 0.35156 6.332 0.62891 1.0586 0.10547 2.0703 0.38672 3.1094 0.59375l3.0781 0.66797 0.12891 0.027344 0.09375 0.035156c0.078126 0.027344 0.32422 0.10547 0.50391 0.14453 0.20312 0.054687 0.41016 0.10547 0.62109 0.15234 0.42578 0.09375 0.85547 0.16797 1.2891 0.23047 0.86719 0.11719 1.7539 0.16406 2.6328 0.14453 0.875-0.015625 1.7344-0.13281 2.5859-0.27344 0.83594-0.19141 1.6797-0.39844 2.4648-0.74609 0.8125-0.3125 1.5586-0.73828 2.2891-1.2031 0.375-0.22266 0.69922-0.51562 1.0586-0.76562 0.34766-0.26953 0.65625-0.58984 0.99609-0.88672 0.62891-0.63281 1.2305-1.3086 1.7812-2.0508 0.29688-0.35156 0.53125-0.75781 0.78906-1.1484l0.37891-0.58984 0.33594-0.62109c0.21875-0.42188 0.46484-0.82422 0.66797-1.2656l0.59375-1.3164c0.21094-0.4375 0.34766-0.91406 0.52734-1.3672 0.16406-0.46094 0.35937-0.90625 0.49219-1.3828 0.27344-0.94531 0.62109-1.875 0.82812-2.8555 0.24219-0.96484 0.48828-1.9375 0.64844-2.9297 0.19141-0.98438 0.375-1.9805 0.51562-2.9844 0.15234-1.0039 0.32031-2.0117 0.40234-3.0234l0.16406-1.5234c0.066406-0.50781 0.11719-1.0195 0.15234-1.5273 0.078126-1.0195 0.15625-2.0391 0.25781-3.0703 0.14062 1.0117 0.25781 2.0312 0.38672 3.0625 0.14062 1.0234 0.17969 2.0547 0.25781 3.0898 0.085938 1.0312 0.09375 2.0664 0.11328 3.1094 0 0.51953 0.035156 1.043 0.015624 1.5625l-0.074218 1.5625c-0.023438 1.0469-0.13281 2.0938-0.24219 3.1406-0.078125 1.0547-0.29688 2.0938-0.45312 3.1523-0.078125 0.52734-0.23438 1.043-0.35156 1.5625-0.13281 0.51953-0.22266 1.0547-0.39844 1.5625l-0.49219 1.5586c-0.16406 0.51953-0.39844 1.0195-0.59766 1.5273l-0.32031 0.76562-0.375 0.74609c-0.25781 0.48828-0.48828 0.99609-0.80078 1.4727-0.30859 0.47656-0.57812 0.97266-0.92969 1.4297-0.35156 0.45312-0.67578 0.92578-1.0586 1.3555-0.39844 0.42578-0.77344 0.86719-1.1914 1.2695-0.44922 0.37891-0.85547 0.80469-1.3281 1.1523-0.92969 0.72266-1.9258 1.3828-3 1.8945-1.0547 0.55469-2.1836 0.93359-3.3164 1.2773-1.1406 0.29297-2.3086 0.51953-3.4766 0.60547-1.1641 0.09375-2.3359 0.10156-3.5 0.011719-0.58203-0.050781-1.1641-0.11328-1.7539-0.20703-0.29297-0.042969-0.58203-0.10156-0.87891-0.16406-0.32031-0.0625-0.56641-0.11719-0.98047-0.24219l0.23047 0.0625-2.8555-0.49219c-0.95312-0.15234-1.8984-0.375-2.8555-0.42578-1.9102-0.16797-3.8086-0.45312-5.7188-0.41016l-1.4219-0.027344c-0.47656-0.011719-0.95313-0.027344-1.4219 0.023437l-2.832 0.16797c-0.23438 0.015625-0.46875 0.023438-0.69922 0.042969l-0.69922 0.10547-1.3945 0.21094-1.3984 0.20703c-0.46484 0.054687-0.91797 0.20703-1.3711 0.30078-0.91406 0.22266-1.8359 0.40234-2.7344 0.66016l-2.6719 0.87891c-0.44922 0.13281-0.87891 0.33203-1.3047 0.51562l-1.293 0.54688c-0.42578 0.19141-0.875 0.34766-1.2891 0.55859l-1.25 0.66016c-0.82812 0.44141-1.6797 0.84375-2.4531 1.3828-0.78906 0.51953-1.625 0.97266-2.3867 1.5273l-2.2969 1.6797-2.1914 1.8477c-0.73828 0.60547-1.3984 1.3047-2.1016 1.9531-0.71094 0.64844-1.3477 1.3711-2.0117 2.0781l-0.98438 1.0547-0.93359 1.1133c-0.62891 0.73828-1.2656 1.4727-1.8438 2.2617-1.1992 1.5352-2.3359 3.1289-3.4258 4.7617l-1.5898 2.4883-1.5117 2.5469-1.4453 2.5977-1.3711 2.6484c-0.89453 1.7812-1.7539 3.5781-2.5469 5.4219-0.79687 1.8359-1.5781 3.6836-2.2969 5.5664-0.70313 1.8945-1.4023 3.7852-2.0156 5.7227z"/>
  <path d="m409.8 56.062s-7.3203 19.02-31.078 24.293c0 0-28.934 5.1055-30.492 10.641l-2.7422 6.8594s32.312-9.9727 42.172-15.508c0 0 16.953-8.9922 23.699-23.867 0 0 1.3828-3.9805-1.5586-2.418z"/>
  <path d="m441.45 109.77s-28.777-13.344-26.348-50.707c0 0 1.2695-1.9609 1.8438 0 0 0-0.11719 23.754 25.602 48.887 0 0 0.91797 1.9023-1.0977 1.8203z"/>
  <path d="m391.98 149.92c1.7305-0.93359 3.5156-1.7148 5.3438-2.4375 0.90625-0.36328 1.832-0.69922 2.7617-1.0195 0.92969-0.32422 1.8711-0.60938 2.8164-0.89063 0.95312-0.27344 1.9023-0.52734 2.8672-0.75781 0.96484-0.24219 1.9375-0.44141 2.918-0.62109 0.97266-0.18359 1.9727-0.33984 2.9609-0.46484 0.99609-0.10547 2.0039-0.21875 3.0117-0.26172 1.0117-0.066406 2.0312-0.054688 3.0625-0.042969l1.5469 0.074219c0.51953 0.035156 1.0352 0.11328 1.5586 0.15625 0.51953 0.042968 1.043 0.15625 1.5508 0.24609l0.79688 0.14062 0.77734 0.19141c1.0469 0.23438 2.0703 0.60938 3.0898 1.0117l1.5195 0.69922 1.4609 0.85156c0.93359 0.64453 1.8555 1.3398 2.6719 2.168 0.42969 0.37891 0.78906 0.83594 1.1602 1.2812l0.55469 0.67187c0.16406 0.23438 0.30078 0.48047 0.46094 0.72266 0.66016 0.95703 1.1094 2 1.5859 3.0312l0.074218 0.15625 0.0625 0.25781c0.089844 0.41406 0.11719 0.67578 0.16406 0.99609 0.0625 0.3125 0.085937 0.59766 0.11328 0.90234 0.074219 0.59375 0.10156 1.1758 0.11719 1.7539 0.039062 0.58203 0.023437 1.1602 0.003906 1.7344-0.011719 0.57812-0.011719 1.1523-0.078125 1.7188l-0.13281 1.707c-0.066406 0.56641-0.17969 1.1211-0.26953 1.6875-0.10156 0.55859-0.16406 1.1328-0.30078 1.6758l-0.39844 1.6523c-0.22266 1.1094-0.62891 2.168-0.98047 3.2383-0.19141 0.52734-0.33594 1.0742-0.56641 1.5898l-0.65625 1.5469-0.67578 1.5352c-0.24609 0.50391-0.52734 0.98047-0.78906 1.4766l-0.8125 1.4688c-0.25781 0.48047-0.52734 0.97266-0.84375 1.4297l-1.8633 2.7422c-0.29688 0.46484-0.66016 0.87891-1.0078 1.3047l-1.043 1.2773c-0.71875 0.83594-1.3906 1.7031-2.1836 2.4531l-2.3125 2.3008c-0.75 0.78906-1.6445 1.4219-2.457 2.1289-0.85156 0.67578-1.6758 1.3672-2.5273 2.0234-0.88672 0.62109-1.793 1.1992-2.6836 1.8047-0.90625 0.57812-1.7969 1.1602-2.7148 1.7148 0.70703-0.81641 1.4453-1.5898 2.1562-2.3789 0.72656-0.77344 1.4609-1.5234 2.168-2.3086 0.66797-0.82812 1.3438-1.6289 2.0117-2.4375 0.66797-0.8125 1.3906-1.5625 1.9805-2.4297l1.832-2.5078c0.64844-0.80469 1.1602-1.707 1.7188-2.5742l0.81641-1.293c0.26953-0.4375 0.56641-0.85156 0.78906-1.3164l1.4453-2.6875c0.25391-0.4375 0.44922-0.90625 0.64844-1.3711l0.60938-1.3828c0.20312-0.46484 0.42578-0.91406 0.60547-1.3828l0.50391-1.418 0.50391-1.4102c0.17969-0.46484 0.28516-0.95703 0.42578-1.4336 0.26172-0.95703 0.55859-1.9102 0.72266-2.8828l0.30078-1.457c0.11328-0.48047 0.13281-0.97266 0.21094-1.457 0.0625-0.48828 0.14062-0.98047 0.17969-1.4688l0.11719-1.4609c0.050782-0.48828 0.035157-0.96875 0.042969-1.457 0.003907-0.48828 0.011719-0.97266-0.015625-1.4492-0.027344-0.47656-0.039062-0.95703-0.089844-1.4102-0.035156-0.22266-0.042968-0.47656-0.078124-0.68359l-0.085938-0.57031 0.125 0.41406c-0.33594-0.71875-0.63281-1.4688-1.0742-2.1055-0.11328-0.16797-0.19531-0.33984-0.30078-0.50391l-0.35938-0.46094c-0.24219-0.30859-0.46094-0.63281-0.75-0.89062-0.53125-0.58203-1.1406-1.0742-1.7734-1.5508l-1.0117-0.66797-1.0938-0.57031c-0.76172-0.35156-1.5352-0.67188-2.3633-0.92969l-0.60938-0.20703-0.63281-0.16406c-0.42578-0.10547-0.84375-0.23438-1.2891-0.30078l-1.3086-0.24219-1.332-0.19141c-0.90625-0.09375-1.8125-0.19141-2.7383-0.22266-0.91797-0.066406-1.8477-0.066406-2.7773-0.078125-0.92969 0.011719-1.8711 0.015625-2.8164 0.0625-0.93359 0.042969-1.8828 0.11328-2.8281 0.17969-0.94531 0.066406-1.8945 0.17969-2.832 0.26953-0.95312 0.10547-1.8984 0.23047-2.8633 0.35156l-2.8555 0.41406c-1.9219 0.27734-3.8242 0.61328-5.75 0.99609z"/>
  <path d="m438.05 232.99s-0.22266 1.2266-0.80469 3.3164c-0.29297 1.043-0.64453 2.3125-1.1328 3.7422-0.46875 1.4336-1.0352 3.0391-1.6953 4.7812-0.67578 1.7305-1.4453 3.6016-2.3359 5.5391-0.86719 1.9414-1.875 3.9609-2.9688 6.0195-1.0938 2.0547-2.2891 4.1562-3.6055 6.2266-1.2891 2.0938-2.7109 4.1445-4.1953 6.1602-0.72656 1.0117-1.5352 1.9766-2.2969 2.9609-0.78516 0.96875-1.6016 1.8984-2.4141 2.8398-1.6445 1.8438-3.3477 3.5898-5.0781 5.1797-1.7305 1.5977-3.4961 3.0469-5.2422 4.3242-1.7305 1.2891-3.4648 2.3867-5.0898 3.332-0.82422 0.44141-1.625 0.86719-2.3789 1.2773-0.78516 0.35938-1.5195 0.69531-2.2188 1.0078-0.69531 0.33594-1.3555 0.57812-1.9805 0.80078-0.60938 0.21875-1.1797 0.42188-1.7031 0.59766-1.0352 0.32422-1.875 0.50391-2.4375 0.65625-0.56641 0.15234-0.85547 0.21094-0.85547 0.21094s1.0859-0.60938 2.9609-1.625c0.45312-0.28516 0.96484-0.59766 1.5117-0.92969 0.54687-0.34766 1.1484-0.67578 1.7461-1.1094 0.61719-0.41406 1.2656-0.85547 1.9414-1.3164 0.66797-0.50781 1.3555-1.0234 2.0781-1.5742 1.4219-1.1133 2.9297-2.3516 4.4453-3.7422 1.5391-1.3789 3.0859-2.9102 4.6367-4.5352 0.79688-0.80078 1.5352-1.6758 2.3242-2.5195 0.77344-0.86328 1.5195-1.7734 2.2891-2.6602 0.74609-0.92578 1.4883-1.8555 2.2344-2.7812 0.72656-0.95703 1.4883-1.8867 2.1914-2.8672 0.72266-0.96875 1.4336-1.9336 2.1094-2.9297 0.69531-0.98047 1.3828-1.9609 2.043-2.9453 0.66797-0.98047 1.293-1.9805 1.9414-2.9531 0.63281-0.98437 1.25-1.9609 1.8555-2.918 1.1875-1.9375 2.3398-3.8125 3.3828-5.6211 1.0625-1.7969 2.0234-3.5273 2.9219-5.125 0.88672-1.6016 1.7148-3.0703 2.418-4.3867 0.69922-1.3203 1.3086-2.4688 1.8125-3.4219 1.0156-1.918 1.5898-3.0117 1.5898-3.0117z"/>
  <path d="m311.62 366.92s-0.066406-0.16406-0.17969-0.47656c-0.11719-0.32031-0.29297-0.76562-0.51562-1.3555-0.23047-0.57813-0.50781-1.2695-0.83594-2.0547-0.32422-0.78516-0.69531-1.6562-1.125-2.6094-0.39062-0.96484-0.91406-1.9609-1.3906-3.0312-0.26172-0.53125-0.53125-1.0703-0.8125-1.6172-0.27344-0.54688-0.53906-1.1094-0.85547-1.668-0.3125-0.56641-0.60938-1.1406-0.91406-1.7266-0.30859-0.57812-0.67188-1.1328-0.99219-1.7188-0.64453-1.1719-1.3828-2.3008-2.1016-3.4375l-0.53125-0.86328-0.58203-0.82422c-0.39062-0.55859-0.76172-1.1094-1.1367-1.668-0.75781-1.0938-1.5898-2.1094-2.3281-3.1523-0.35156-0.53906-0.79688-0.99609-1.1758-1.4727-0.38672-0.48047-0.76563-0.94531-1.1406-1.4062-0.70703-0.95313-1.4961-1.7422-2.1719-2.5273-0.33594-0.40234-0.66797-0.78516-0.97266-1.1406-0.15625-0.17969-0.30078-0.35938-0.44922-0.54297-0.15625-0.16406-0.30859-0.3125-0.45312-0.46875-0.58984-0.60547-1.0938-1.1797-1.5078-1.625-0.42578-0.46484-0.73438-0.85156-0.95703-1.0977-0.21094-0.27344-0.33594-0.40234-0.33594-0.40234s0.16406 0.066406 0.46875 0.20703c0.30859 0.12891 0.75781 0.33203 1.3086 0.62109 0.56641 0.29297 1.2539 0.62109 2.0234 1.0469 0.79687 0.40234 1.5742 1.0078 2.4766 1.6016 0.87891 0.63281 1.875 1.2812 2.7812 2.1289 0.46484 0.41016 0.94531 0.82812 1.4336 1.2656 0.48828 0.4375 0.99219 0.88672 1.4453 1.3984 0.46484 0.5 0.92969 1.0039 1.3984 1.5273 0.46484 0.52734 0.96484 1.043 1.3711 1.6172 0.42969 0.57813 0.875 1.1406 1.3008 1.7305l0.64453 0.88672 0.58203 0.91406c0.375 0.62891 0.75781 1.25 1.1367 1.8711 0.39844 0.60547 0.67578 1.2812 1.0117 1.9141 0.67188 1.2656 1.2148 2.5664 1.7148 3.8242 0.25781 0.63281 0.48047 1.2656 0.67188 1.8984 0.19531 0.62891 0.40234 1.2266 0.57031 1.8242 0.29297 1.2227 0.59766 2.3398 0.76172 3.4219 0.085937 0.54297 0.18359 1.043 0.24219 1.5273 0.050782 0.5 0.10156 0.95703 0.14453 1.3945 0.085937 0.88672 0.085937 1.6523 0.089843 2.2852-0.003906 1.2578-0.11328 1.9805-0.11328 1.9805z"/>
  <path d="m319.98 327.49s0.011719 0.027344 0.027344 0.09375c0.011719 0.074219 0.054688 0.15625 0.074219 0.28125 0.050781 0.22266 0.10156 0.53125 0.125 0.875 0.042969 0.67188-0.074219 1.4492-0.34766 2.1445-0.066407 0.17188-0.14453 0.33984-0.23047 0.5-0.085938 0.16406-0.17969 0.3125-0.26953 0.45313-0.19141 0.29687-0.41016 0.54687-0.62109 0.77344-0.23438 0.25391-0.4375 0.45312-0.57812 0.60547-0.066406 0.074218-0.14453 0.14453-0.19531 0.19531-0.042969 0.050782-0.074219 0.074219-0.074219 0.074219s-0.027344-0.015625-0.078125-0.0625c-0.042969-0.050781-0.13281-0.11719-0.20703-0.20703-0.085937-0.09375-0.17187-0.21094-0.24219-0.35938-0.078125-0.13281-0.16797-0.32031-0.21875-0.5-0.11719-0.35938-0.17188-0.79688-0.14453-1.2227 0.023437-0.42969 0.11719-0.86328 0.28125-1.2695 0.32422-0.81641 0.90234-1.4727 1.5-1.8633 0.29688-0.19141 0.58984-0.33203 0.81641-0.40234 0.10547-0.042968 0.21094-0.0625 0.26953-0.085937 0.082031-0.023438 0.11328-0.023438 0.11328-0.023438z"/>
  <path d="m394.7 246.31s-0.0625 0.30078-0.19141 0.86719c-0.125 0.56641-0.30078 1.3945-0.56641 2.4414-0.23438 1.0547-0.63281 2.3086-1.0703 3.7578-0.42969 1.457-1.0195 3.0586-1.6914 4.8008-0.35938 0.86328-0.74609 1.7578-1.1328 2.6875-0.42188 0.91797-0.88672 1.8555-1.3477 2.8281-0.48047 0.95703-1.0469 1.9141-1.5859 2.918-0.57812 0.96875-1.1758 1.9609-1.8203 2.9453-0.66797 0.98047-1.3281 1.9805-2.0781 2.9414-0.71094 0.98438-1.5078 1.9336-2.2969 2.8828-1.6133 1.8867-3.3672 3.6953-5.1367 5.4336-1.7812 1.7266-3.5898 3.375-5.2578 5.0195-1.6562 1.6367-3.1641 3.2812-4.3555 5.0391-1.1992 1.7422-2.0898 3.5859-2.7148 5.4492-0.26953 0.95313-0.57031 1.875-0.73438 2.8047-0.23438 0.91406-0.34766 1.832-0.48047 2.7109-0.22266 1.7656-0.35938 3.4219-0.41016 4.8984-0.054688 0.73828-0.042969 1.4297-0.054688 2.0781-0.011719 0.63672-0.015625 1.2305-0.035156 1.7656 0.042969 2.1445 0.035156 3.3828 0.035156 3.3828s-0.085937-0.30078-0.23438-0.85156c-0.14062-0.55859-0.37109-1.3828-0.60938-2.4414-0.18359-1.0586-0.51953-2.3516-0.68359-3.8594-0.21875-1.5117-0.38672-3.2148-0.39844-5.125-0.027344-1.9102 0.15234-3.9922 0.59375-6.1836 0.48828-2.1914 1.3555-4.4805 2.625-6.6211 1.2656-2.1328 2.8789-4.0938 4.5977-5.8789 1.707-1.8086 3.5156-3.4727 5.2422-5.1641 1.7422-1.6797 3.4102-3.3867 5-5.1172 1.5664-1.7422 3.0391-3.5117 4.3945-5.2852 0.68359-0.88672 1.3047-1.793 1.9492-2.6602 0.59375-0.90234 1.1914-1.7812 1.7578-2.6328 0.54688-0.87891 1.082-1.7344 1.5977-2.5586 0.49219-0.83984 0.96875-1.6562 1.4297-2.4453 0.46484-0.77734 0.85156-1.5625 1.2695-2.2852 0.40234-0.72266 0.80078-1.4102 1.1133-2.0781 0.65625-1.332 1.3086-2.4531 1.7656-3.4375 0.45312-0.97266 0.85547-1.7266 1.1211-2.2383 0.24609-0.51172 0.39453-0.78906 0.39453-0.78906z"/>
  <path d="m361.72 96.879s-0.023437 0.20312-0.066406 0.58203c-0.050781 0.375-0.089844 0.93359-0.15234 1.6367-0.11328 1.4102-0.23047 3.4141-0.22266 5.8008-0.003906 1.1875 0.015625 2.4766 0.089844 3.832 0.066406 1.3477 0.19531 2.7656 0.35156 4.2188 0.19141 1.4492 0.40234 2.9453 0.72266 4.4414 0.29688 1.5 0.6875 2.9961 1.1133 4.4805 0.45312 1.4727 0.96875 2.9297 1.5508 4.3281 0.58984 1.3984 1.2227 2.7656 1.9141 4.043 0.16797 0.32031 0.34766 0.63672 0.50781 0.95312 0.17188 0.3125 0.36328 0.60938 0.54688 0.91406 0.35156 0.60547 0.70703 1.1992 1.0859 1.7539 0.72266 1.1367 1.4883 2.1523 2.1914 3.1133 0.35938 0.46875 0.73828 0.90234 1.0586 1.3398 0.33594 0.42578 0.65625 0.83984 0.99219 1.1914 0.65625 0.71094 1.1758 1.4062 1.6797 1.9023 0.96875 1.0234 1.5117 1.6523 1.5117 1.6523s-0.72266-0.37891-1.9609-1.125c-0.62109-0.35156-1.3164-0.87891-2.1328-1.4609-0.82812-0.57812-1.6875-1.3281-2.6211-2.1406-0.45312-0.4375-0.91797-0.89063-1.3984-1.3594-0.48047-0.46484-0.91406-1.0117-1.3945-1.5391-0.5-0.53125-0.91797-1.125-1.3906-1.7266-0.46875-0.58984-0.89062-1.2422-1.3164-1.8984-0.44922-0.64844-0.83984-1.3438-1.2305-2.0625-0.41016-0.69922-0.75781-1.4453-1.1094-2.1914-0.375-0.74609-0.66016-1.5273-0.97266-2.3086-0.29687-0.78516-0.54687-1.5898-0.81641-2.3867-0.44922-1.6172-0.86719-3.2461-1.1016-4.8828-0.28516-1.6289-0.40234-3.2422-0.46875-4.8047-0.042969-1.5625-0.015625-3.0742 0.09375-4.4961 0.11719-1.418 0.29688-2.7539 0.51953-3.9688 0.20703-1.2227 0.5-2.3242 0.76172-3.2891 0.26172-0.96484 0.54297-1.793 0.78906-2.4688 0.47656-1.3516 0.875-2.0742 0.875-2.0742z"/>
  <path d="m386.28 143.06c0.91406-0.32031 1.793-0.69922 2.6836-1.0469 0.88672-0.35938 1.7656-0.73828 2.6328-1.1211 1.7539-0.76562 3.4727-1.5742 5.1641-2.4297l2.4961-1.332c0.82813-0.45312 1.6445-0.91797 2.4531-1.4062 0.80469-0.48828 1.5859-1.0039 2.3789-1.5 0.77734-0.52734 1.5586-1.0469 2.2969-1.6055 0.76172-0.54297 1.4766-1.1367 2.1992-1.7188l1.0703-0.89063 1.0234-0.93359c0.35156-0.30078 0.66016-0.64453 0.99219-0.96484 0.33594-0.32422 0.64453-0.64844 0.94531-1.0039 0.62891-0.67188 1.1992-1.3906 1.7852-2.0938 0.53125-0.73438 1.0977-1.4492 1.5625-2.2344 0.51562-0.75781 0.91406-1.5742 1.3438-2.3633 0.35938-0.82812 0.78906-1.6367 1.0625-2.4961 0.35156-0.83984 0.55859-1.7266 0.8125-2.6055l0.027344-0.09375c0.11328-0.3125 0.19531-0.49219 0.30078-0.71875 0.10547-0.22266 0.21875-0.41406 0.33594-0.61719 0.23047-0.39062 0.47656-0.77344 0.75-1.125 0.25781-0.37109 0.55469-0.69922 0.82812-1.043 0.29297-0.33984 0.59766-0.64453 0.90234-0.96484 0.32031-0.30078 0.63281-0.58984 0.95703-0.88672 0.33203-0.28516 0.67578-0.54297 1.0312-0.80469 0.32422-0.27344 0.69922-0.48828 1.0547-0.73438 0.35938-0.23438 0.71875-0.46875 1.0977-0.67188l1.1094-0.62109 1.1523-0.53906c0.375-0.19141 0.77344-0.34766 1.1719-0.49219l1.1758-0.44922c0.39062-0.14453 0.80078-0.24609 1.1992-0.37109l1.2109-0.35156c0.81641-0.17969 1.6289-0.35156 2.4414-0.51562-0.75781 0.33984-1.5195 0.66016-2.2773 0.98438l-1.0977 0.53906c-0.37109 0.18359-0.74609 0.35156-1.1016 0.54687l-1.0742 0.58984c-0.35938 0.19141-0.70703 0.39062-1.043 0.62891l-1.0234 0.64844-0.98438 0.69922c-0.33203 0.23047-0.64453 0.47656-0.94141 0.73438-0.30859 0.26172-0.62891 0.49219-0.90234 0.77734-0.29297 0.28125-0.58203 0.53906-0.85547 0.81641-0.26953 0.28516-0.54297 0.56641-0.80469 0.85547-0.23438 0.30078-0.50391 0.59375-0.71875 0.90625-0.22266 0.30859-0.46094 0.62109-0.64453 0.94531-0.20703 0.32031-0.37891 0.65625-0.54688 0.98047-0.085937 0.16406-0.17187 0.33203-0.24219 0.48828-0.066406 0.15234-0.13281 0.35156-0.15625 0.42969l0.027344-0.09375c-0.24219 0.97266-0.41406 1.9727-0.75781 2.918-0.28125 0.96875-0.68359 1.8945-1.0625 2.8242-0.46875 0.89453-0.90234 1.8086-1.4492 2.6484-0.50391 0.86719-1.1016 1.6758-1.6914 2.4883l-0.92969 1.1719c-0.32422 0.38672-0.67188 0.73828-1.0078 1.1094-0.33203 0.375-0.68359 0.72266-1.0469 1.0625-0.35938 0.33984-0.70703 0.70703-1.082 1.0234l-1.1094 0.98438-1.1523 0.92969c-0.37109 0.32031-0.78906 0.58203-1.1797 0.87891-0.39844 0.29297-0.80469 0.57812-1.2227 0.83984-0.8125 0.55469-1.6445 1.0586-2.4805 1.5664-0.85156 0.48828-1.7031 0.96875-2.5742 1.3984-0.86328 0.44922-1.7461 0.85547-2.6445 1.2539-0.87891 0.41016-1.7695 0.77344-2.6836 1.1211-0.90625 0.34766-1.8125 0.67188-2.7266 0.98438-0.92578 0.29687-1.8555 0.57812-2.7891 0.83594-0.91797 0.26172-1.8633 0.48047-2.8047 0.69531-0.96094 0.23047-1.9141 0.39453-2.8672 0.53516z"/>
  <path d="m399.96 123.36c-1.3438 0-2.2969-0.39062-2.3672-0.42188-0.35156-0.14453-0.51562-0.55469-0.35938-0.90625 0.14062-0.35156 0.54297-0.51562 0.89453-0.37109 0.09375 0.039062 2.2344 0.89062 4.5117-0.39844 2.4648-1.4062 4.1836-4.9062 4.9727-10.141 0.011718-0.027344 0.015624-0.050782 0.023437-0.078126 0.11719-0.42187 3.0078-10.293 19.969-14.84 0.36328-0.10156 0.75 0.11719 0.84375 0.48828 0.10156 0.37109-0.11719 0.75-0.48828 0.84375-15.664 4.1992-18.789 13.215-18.984 13.844-0.87891 5.7344-2.793 9.4648-5.6953 11.098-1.1836 0.68359-2.3594 0.88281-3.3203 0.88281z"/>
  <path d="m395.45 132.68c-0.054687 0-0.11719-0.003907-0.17187-0.023438-8.2539-2.1055-14.125-9.2578-14.371-9.5586-0.23438-0.29688-0.19141-0.73438 0.10156-0.97266 0.30078-0.24219 0.73438-0.19531 0.98047 0.10156 0.054687 0.074219 5.8359 7.1016 13.641 9.0938 0.37109 0.09375 0.59375 0.46875 0.50781 0.83984-0.09375 0.30859-0.37891 0.51953-0.6875 0.51953z"/>
  <path d="m388.44 135.96c-0.0625 0-0.11719-0.003907-0.18359-0.023438-0.17969-0.050781-4.5742-1.2773-7.2461-3.4141-0.30078-0.23438-0.34766-0.67188-0.11719-0.96875 0.24219-0.30078 0.67578-0.34766 0.97266-0.11328 2.4531 1.9648 6.7148 3.1523 6.7539 3.1602 0.36328 0.10156 0.58203 0.48047 0.49219 0.85156-0.089844 0.3125-0.36719 0.50781-0.67188 0.50781z"/>
  <path d="m408.57 27.492c-0.46484-0.09375-11.57-2.2695-24.711 3.1484-11.176 4.6094-25.781 15.785-34.184 42.738-0.042969 0.09375-0.089844 0.18359-0.13281 0.28125-0.39062 0.83984-0.74609 1.7422-1.1523 2.6758-0.375 0.93359-0.73438 1.9336-1.1211 2.957-0.35156 1.0312-0.71094 2.1016-1.0586 3.2031-0.67578 2.2109-1.3477 4.5547-1.9375 6.9883-0.32031 1.2148-0.58984 2.4531-0.87891 3.707-0.28516 1.2539-0.55859 2.5195-0.81641 3.7969-0.54688 2.5469-1.0312 5.1367-1.5508 7.6992-0.49219 2.5703-1.0117 5.1367-1.5352 7.6211-0.27344 1.2383-0.54688 2.4688-0.81641 3.6836-0.14453 0.59375-0.29688 1.1875-0.44141 1.7852-0.14453 0.58984-0.28516 1.1758-0.45312 1.7539-0.59766 2.3203-1.3203 4.4844-2.0664 6.5117-0.19531 0.5-0.39062 0.99219-0.58984 1.4766-0.18359 0.49219-0.4375 0.92969-0.63281 1.3984-0.39062 0.94141-0.90234 1.7461-1.3281 2.5859-0.96484 1.5781-1.9414 2.9961-2.9922 4.0977-0.25781 0.28125-0.51562 0.55469-0.76172 0.81641-0.25391 0.24609-0.52734 0.46484-0.77344 0.6875-0.25391 0.23047-0.49219 0.44922-0.72266 0.64844-0.23438 0.20312-0.47656 0.35156-0.69922 0.51953-0.46094 0.32031-0.85547 0.63672-1.2383 0.87891-0.39844 0.23047-0.73438 0.42188-1.0078 0.57031-0.54297 0.32422-0.83594 0.49219-0.83594 0.49219s0.33594-0.054688 0.95703-0.15625c0.30859-0.054688 0.69531-0.125 1.1406-0.20312 0.44141-0.10156 0.95312-0.28516 1.5352-0.46875 0.28516-0.10156 0.61719-0.18359 0.91797-0.32422 0.30078-0.14453 0.62109-0.29688 0.95312-0.45312 0.33203-0.16406 0.6875-0.32031 1.0352-0.51562 0.33594-0.22266 0.68359-0.44141 1.043-0.66797 1.4609-0.92578 2.918-2.2461 4.3516-3.8203 1.3828-1.6055 2.7227-3.4961 3.8789-5.5938 1.1367-2.1055 2.2188-4.3945 3.0781-6.8086 0.89453-2.4141 1.6797-4.9375 2.3398-7.5156 0.6875-2.5703 1.2383-5.1953 1.7734-7.8164 0.5-2.6211 0.97266-5.2305 1.3828-7.8047 0.21875-1.2812 0.41406-2.5547 0.60547-3.8086 0.19141-1.2539 0.37891-2.4922 0.57031-3.707 0.375-2.4258 0.73828-4.7695 1.082-6.9883 0.18359-1.1016 0.36328-2.1797 0.53906-3.2188 0.19141-1.043 0.37109-2.0391 0.54688-3 0.19141-0.95703 0.375-1.875 0.54687-2.7539 0.16797-0.73828 0.32031-1.4453 0.46484-2.1172 6.5312-19.734 17.461-33.219 31.914-39.234 12.383-5.1406 23.141-3.0625 23.246-3.0391 0.73828 0.15234 1.4766-0.33203 1.6289-1.082 0.14062-0.74219-0.33984-1.4688-1.0938-1.625z"/>
  <path d="m451.66 95.988c-0.011719-1.1875-0.066406-2.375-0.10156-3.5625-0.035157-1.1875-0.14063-2.375-0.21094-3.5508-0.078125-1.1797-0.17969-2.3594-0.32031-3.5352-0.11328-1.043-0.21875-2.0703-0.35938-3.1016 0.003907-0.29297 0.023438-0.58203 0.023438-0.875-0.015625-1.0312-0.027344-2.0938-0.042969-3.1914 0.003907-1.1016-0.12891-2.2227-0.20312-3.375-0.050781-0.57812-0.10156-1.1641-0.15234-1.7539-0.054687-0.58203-0.16406-1.1758-0.23437-1.7734-0.17969-1.1875-0.33203-2.4062-0.61719-3.625-0.26953-1.2109-0.46875-2.457-0.85156-3.6719-0.35938-1.2227-0.66797-2.4766-1.1328-3.6836l-0.66797-1.8242c-0.22266-0.60938-0.5-1.1992-0.75-1.8047-1.0117-2.4023-2.2891-4.6875-3.6562-6.8594-0.73438-1.0625-1.4336-2.1289-2.2344-3.1094-0.39844-0.48828-0.80078-0.98047-1.1875-1.4609-0.39844-0.46875-0.82812-0.91797-1.2422-1.3672-0.42188-0.45312-0.83594-0.89453-1.2812-1.3047-0.4375-0.41406-0.86328-0.82812-1.293-1.2227-0.90625-0.75-1.7578-1.5234-2.6836-2.1602-1.7891-1.3594-3.5977-2.4414-5.3164-3.3359-1.7188-0.90625-3.3711-1.5586-4.8398-2.0703-1.4727-0.53906-2.8008-0.84375-3.8867-1.0977-1.082-0.24609-1.9609-0.33984-2.5469-0.41406-0.58984-0.066406-0.90234-0.066406-0.90234-0.066406s1.2109 0.37109 3.2031 1.2656c1.9805 0.89453 4.75 2.3086 7.7344 4.4336 1.4961 1.0547 3.0586 2.2695 4.5742 3.6797 0.78516 0.6875 1.5195 1.4609 2.2852 2.2227 0.71094 0.82422 1.5117 1.5977 2.1953 2.4961 1.4609 1.7148 2.7422 3.6562 4.0078 5.6445 0.29688 0.50781 0.58203 1.0312 0.89062 1.5391l0.42969 0.77734 0.41016 0.80078 0.8125 1.6055c0.25781 0.54297 0.48047 1.1016 0.72656 1.6523 0.23047 0.55469 0.50391 1.0977 0.70703 1.6641l0.62891 1.6914c0.4375 1.1211 0.77344 2.2773 1.1367 3.4102 0.6875 2.2852 1.2695 4.5703 1.7148 6.8203 0.11719 0.55859 0.25391 1.1133 0.34766 1.668 0.011719 0.042969 0.015625 0.09375 0.023438 0.13281 0 0.46094-0.003907 0.91797-0.023438 1.3711-0.003906 1.1602-0.035156 2.3203-0.078125 3.4727-0.023437 1.1523-0.085937 2.3125-0.13281 3.4609-0.042969 1.1484-0.10547 2.3008-0.17188 3.4492-0.074219 1.1484-0.13281 2.2969-0.23047 3.4375-0.089844 1.1406-0.15234 2.2852-0.28516 3.4219-0.10156 1.1406-0.18359 2.2734-0.32031 3.4062-0.125 1.1367-0.26172 2.2617-0.37891 3.3984l-0.46094 3.3711c-0.15234 1.125-0.35938 2.2344-0.53906 3.3477-0.15625 1.1211-0.375 2.2188-0.59766 3.3203-0.21875 1.1016-0.41406 2.2109-0.6875 3.2891-0.25781 1.082-0.46875 2.1836-0.77734 3.2461-0.3125 1.0625-0.58984 2.1289-0.87891 3.2031-0.042969 0.18359-0.089844 0.39062-0.11328 0.58203-0.24609 1.8086-0.44922 3.5352-0.62891 5.2969-0.17969 1.7578-0.30859 3.5156-0.4375 5.2734-0.12891 1.7578-0.24219 3.5234-0.30078 5.293-0.066406 1.7656-0.10547 3.5391-0.125 5.3125-0.015625 1.7812 0.003906 3.5547 0.085938 5.3477 0.054687 1.7812 0.16406 3.5781 0.30859 5.3711 0.19531 1.8047 0.375 3.6055 0.68359 5.4336 0.11328 0.90234 0.33203 1.8203 0.53125 2.7383l0.55859 2.5039c0.085937 0.48828 0.18359 1.1641 0.16797 1.793 0.023437 0.63672-0.042969 1.2812-0.16406 1.9492-0.24219 1.3203-0.74609 2.7266-1.3945 4.1992-0.64453 1.4727-1.4492 2.9805-2.2188 4.5547-0.77344 1.5625-1.5742 3.168-2.2734 4.8281-1.4297 3.3164-2.5312 6.8047-3.1484 10.332-0.30859 1.7695-0.51953 3.5391-0.59375 5.3125-0.035157 0.55469-0.042969 1.1094-0.0625 1.6641-0.023438 0.089844-0.042969 0.17969-0.054688 0.28125-0.13281 0.58984-0.3125 1.2656-0.42578 2.0039-0.089844 0.73828-0.15625 1.5508-0.22266 2.4141 0 0.85547 0 1.7656 0.035156 2.6992 0.089844 0.92578 0.15625 1.8945 0.30859 2.8633 0.17188 0.95703 0.32031 1.9414 0.55859 2.9062 0.24219 0.96484 0.46484 1.9219 0.76562 2.8438 0.26953 0.93359 0.58203 1.832 0.91406 2.6953 0.32031 0.86719 0.68359 1.6797 1.0195 2.457 0.34766 0.76562 0.70703 1.4844 1.0469 2.1406 0.68359 1.3047 1.3281 2.3594 1.8086 3.0742 0.47656 0.72266 0.78906 1.1016 0.78906 1.1016s-0.09375-0.48828-0.28516-1.3203c-0.10547-0.42188-0.20703-0.92969-0.35156-1.5-0.14453-0.57813-0.30859-1.2227-0.47656-1.9258-0.35156-1.3984-0.76562-3.0312-1.2109-4.7695-0.11719-0.42969-0.22266-0.875-0.33984-1.3164-0.10156-0.44922-0.21094-0.89453-0.33203-1.3477-0.23438-0.90625-0.4375-1.832-0.64844-2.7539-0.24219-0.91797-0.37891-1.8477-0.59766-2.7539-0.17969-0.91406-0.35156-1.8047-0.51953-2.6758-0.125-0.86719-0.25391-1.7148-0.38672-2.5195-0.089844-0.79688-0.16406-1.5586-0.26953-2.2695-0.042969-0.71094-0.078125-1.3672-0.11719-1.9414-0.003906-0.035156 0-0.054688-0.003906-0.09375 0.16406-0.57812 0.33984-1.1484 0.51953-1.707 0.50391-1.6445 1.0859-3.2578 1.7461-4.8203 1.2773-3.1523 2.8711-6.0859 4.6758-8.9141 0.90625-1.4102 1.8555-2.8125 2.832-4.2266 1.0078-1.4102 1.9883-2.8789 2.957-4.4805 0.96875-1.5859 1.8711-3.3828 2.4648-5.4258 0.30859-1.0195 0.53125-2.0938 0.62109-3.1875 0.023438-0.27344 0.050781-0.55469 0.054688-0.82422v-0.81641c0.023437-0.52734-0.054688-1.1641-0.11719-1.7539-0.066406-0.57031-0.11328-0.80078-0.20703-1.418l-0.15625-1.1914c-0.11328-0.78906-0.21875-1.5781-0.28516-2.3984-0.17969-1.6172-0.25391-3.2773-0.33984-4.9297-0.011719-1.6758-0.10547-3.3359-0.078125-5.0234-0.039063-1.6758 0.050781-3.3711 0.054687-5.0625 0.042969-1.6953 0.10156-3.3867 0.19141-5.0898 0.089843-1.6953 0.15625-3.3984 0.26953-5.1016 0.10156-1.6953 0.23047-3.3984 0.35156-5.1016 0.125-1.6445 0.26172-3.332 0.40234-4.9219 0.25391-1.0352 0.49219-2.0703 0.71875-3.1094 0.27344-1.1875 0.42578-2.3867 0.65625-3.5742 0.21094-1.1914 0.37109-2.3867 0.50391-3.5859 0.14453-1.1992 0.29297-2.3906 0.37109-3.5898 0.085938-1.1914 0.21875-2.3867 0.24609-3.5859l0.125-3.5859c-0.019531-1.168-0.023438-2.3594-0.03125-3.5547z"/>
  <path d="m420.72 113.66c-1.6523 0-4.2227-0.52734-6.5508-3.207-0.37109-0.42969-0.32422-1.0859 0.11328-1.4609s1.0859-0.32422 1.4688 0.10547c2.832 3.2773 6.0156 2.3984 6.1562 2.3594 0.54688-0.16406 1.125 0.15234 1.2891 0.69922 0.16406 0.54297-0.14062 1.1211-0.6875 1.2891-0.074219 0.015625-0.76562 0.21484-1.7891 0.21484z"/>
  <path d="m386.45 87.395s0.042969 0.089844 0.12891 0.26172c0.074219 0.17188 0.21094 0.42188 0.33203 0.72656 0.12891 0.29688 0.29688 0.65625 0.47656 1.0703 0.16406 0.39062 0.35156 0.82812 0.55859 1.3047 0.19141 0.46484 0.39063 0.94141 0.60938 1.4219 0.20312 0.48828 0.44141 0.95703 0.67187 1.418 0.23438 0.44922 0.47656 0.875 0.71094 1.2539 0.26953 0.35938 0.47656 0.72266 0.75781 0.97266 0.24219 0.28516 0.49219 0.53125 0.80078 0.76562 0.12891 0.125 0.30078 0.22266 0.46875 0.34766 0.15625 0.125 0.36328 0.20312 0.54297 0.33594 0.19141 0.10547 0.41016 0.18359 0.60938 0.30859 0.21875 0.10156 0.45312 0.16797 0.66797 0.28125 0.22266 0.10156 0.47656 0.15625 0.71094 0.25391 0.22266 0.10156 0.46094 0.15625 0.69531 0.23437 0.24219 0.078126 0.46875 0.15234 0.6875 0.22266 0.22266 0.0625 0.4375 0.11719 0.64844 0.18359 0.41406 0.125 0.80078 0.26953 1.1133 0.35156 0.3125 0.085937 0.58203 0.19531 0.76562 0.24609 0.17969 0.074219 0.27344 0.11328 0.27344 0.11328l0.09375 0.33203s-0.33984 0.089844-0.92969 0.24219c-0.29688 0.085937-0.65625 0.16406-1.082 0.23438-0.20703 0.042968-0.42578 0.085937-0.66797 0.12891-0.24219 0.023438-0.48828 0.042969-0.75781 0.066406-0.51953 0.066406-1.0977 0.054688-1.707 0.042969-0.30859-0.023437-0.61719-0.054687-0.94141-0.085937-0.3125-0.0625-0.63672-0.11328-0.96875-0.19141-0.63672-0.17969-1.3164-0.39844-1.9336-0.77344-0.62891-0.34766-1.1992-0.81641-1.6875-1.3555-0.5-0.53906-0.85156-1.1641-1.1797-1.7969-0.30078-0.63672-0.51562-1.3008-0.69531-1.9375-0.32031-1.293-0.42969-2.5312-0.44141-3.5781-0.015625-1.0586 0.085938-1.9258 0.16406-2.5312 0.074219-0.60547 0.15234-0.95703 0.15234-0.95703z"/>
  <path d="m408.31 94.852c-0.035156 0-0.0625 0-0.10547-0.003906-0.57031-0.050781-0.98438-0.54688-0.93359-1.1211 0.023438-0.34766 0.58203-8.5391-8.9336-12.414-0.53125-0.21875-0.78906-0.82422-0.57031-1.3555 0.21875-0.52734 0.82422-0.78516 1.3477-0.56641 10.961 4.4688 10.219 14.414 10.207 14.516-0.03125 0.54297-0.48047 0.94531-1.0117 0.94531z"/>
  <use x="70" y="644" xlink:href="#u"/>
  <use x="90.550781" y="644" xlink:href="#b"/>
  <use x="104.359375" y="644" xlink:href="#a"/>
  <use x="123.347656" y="644" xlink:href="#j"/>
  <use x="142.242188" y="644" xlink:href="#c"/>
  <use x="155.628906" y="644" xlink:href="#a"/>
  <use x="174.617188" y="644" xlink:href="#i"/>
  <use x="204.410156" y="644" xlink:href="#h"/>
  <use x="224.453125" y="644" xlink:href="#g"/>
  <use x="252.453125" y="644" xlink:href="#f"/>
  <use x="274.148438" y="644" xlink:href="#b"/>
  <use x="287.957031" y="644" xlink:href="#t"/>
  <use x="297.554688" y="644" xlink:href="#s"/>
  <use x="314.21875" y="644" xlink:href="#e"/>
  <use x="70" y="672" xlink:href="#r"/>
  <use x="82.183594" y="672" xlink:href="#b"/>
  <use x="95.992188" y="672" xlink:href="#d"/>
  <use x="115.226562" y="672" xlink:href="#q"/>
  <use x="154.152344" y="672" xlink:href="#c"/>
  <use x="167.535156" y="672" xlink:href="#e"/>
  <use x="187.46875" y="672" xlink:href="#a"/>
  <use x="216.207031" y="672" xlink:href="#p"/>
  <use x="239.640625" y="672" xlink:href="#d"/>
  <use x="258.878906" y="672" xlink:href="#o"/>
  <use x="278.8125" y="672" xlink:href="#n"/>
  <use x="308.492188" y="672" xlink:href="#m"/>
  <use x="329.015625" y="672" xlink:href="#b"/>
  <use x="342.820312" y="672" xlink:href="#d"/>
  <use x="362.058594" y="672" xlink:href="#l"/>
  <use x="371.65625" y="672" xlink:href="#a"/>
  <use x="390.648438" y="672" xlink:href="#k"/>
  <use x="407.242188" y="672" xlink:href="#c"/>
 </g>
</svg>
